# xmcd
#
# Track frame offsets: 
#        150
#        20652
#        43375
#        70697
#        97770
#        130865
#        140555
#        154580
#        164827
#        178507
#        193762
#        239212
#        254665
#        268420
#        285137
#        301765
#
# Disc length: 4338 seconds
#
# Revision: 0
# Processed by: cddbd v1.5.2PL0 Copyright (c) Steve Scherf et al.
# Submitted via: ExactAudioCopy v0.99pb4
#
DISCID=ee10f010
DTITLE=BIG JACK JOHNSON - The Oil Man Got Drunk  Rooster Blues Session
DTITLE=s1990 1993 1994
DYEAR=1900
DGENRE=Blues
TTITLE0=Rudolph Got Drunk Last Night(Jack Johnson)
TTITLE1=The Things That I Used To Do(Band Version)(Jack Johnson)
TTITLE2=Ice Storm Blues(Part 1)(Jack Johnson)
TTITLE3=Ice Storm Blues(Part 2)(Jack Johnson)
TTITLE4=Vampire Woman(Jack Johnson)
TTITLE5=Close Shave Boogie(Wade Walton,Jack Johnson)
TTITLE6=The Spoonful(Ellis Johnson)
TTITLE7=Little Piggy(Jack Johnson)
TTITLE8=Corrine,Corrina(Bo Chatman)
TTITLE9=Fightin' Woman(Jack Johnson)
TTITLE10=I'm A Lonely Woman(Jack Johnson)
TTITLE11=Baby Please Don't Go(M.Morganfield)
TTITLE12=Hummin' Blues(Part 1)(Jack Johnson)
TTITLE13=Hummin' Blues(Part 2)(Jack Johnson)
TTITLE14=Jingle Bell Boogie(Jack Johnson)
TTITLE15=The Things That I Used To Do(Solo Version)(Jack Johnson)
EXTD=
EXTT0=
EXTT1=
EXTT2=
EXTT3=
EXTT4=
EXTT5=
EXTT6=
EXTT7=
EXTT8=
EXTT9=
EXTT10=
EXTT11=
EXTT12=
EXTT13=
EXTT14=
EXTT15=
PLAYORDER=
